<svg width="122" height="30" viewBox="0 0 122 30" fill="none" xmlns="http://www.w3.org/2000/svg">
<mask id="mask0_1005_938" style="mask-type:luminance" maskUnits="userSpaceOnUse" x="0" y="0" width="27" height="30">
<path d="M26.4531 0H0V30H26.4531V0Z" fill="white"/>
</mask>
<g mask="url(#mask0_1005_938)">
<path d="M22.3709 3.00317H20.5696C19.9201 3.00317 19.3938 3.52958 19.3938 4.17894V10.7266C19.3938 11.376 19.9201 11.9024 20.5696 11.9024H22.3709C23.0203 11.9024 23.5467 11.376 23.5467 10.7266V4.17894C23.5467 3.52958 23.0203 3.00317 22.3709 3.00317Z" fill="#C5BCB3"/>
<path d="M25.3338 11.4511L14.3452 0.46147C14.0481 0.165761 13.6459 -0.000244141 13.2266 -0.000244141C12.8074 -0.000244141 12.4052 0.165761 12.108 0.46147L1.11963 11.4511C0.449085 12.1969 0.0539802 13.1497 0 14.1511V16.0869C6.00336 20.5534 13.2894 22.96 20.772 22.948C22.675 22.9483 24.5749 22.7937 26.4528 22.4855V14.1511C26.3982 13.1499 26.0035 12.1974 25.3338 11.4511Z" fill="#DEE1E6"/>
<path d="M20.7723 24.7282C13.2897 24.74 6.00364 22.3334 0.000244141 17.8671V28.3236C0.00160205 28.7429 0.168708 29.1444 0.465086 29.4407C0.761462 29.7372 1.16304 29.9042 1.58218 29.9056H24.8713C25.2903 29.9042 25.6918 29.737 25.9883 29.4407C26.2846 29.1442 26.4517 28.7427 26.453 28.3236V24.2657C24.5751 24.5739 22.6753 24.7285 20.7723 24.7282Z" fill="#C5BCB3"/>
</g>
<path d="M35.4651 23V22.956C36.1471 21.504 36.3451 20.668 36.3451 18.71V11.186C36.3451 9.206 36.1471 8.392 35.4651 6.94V6.896H40.3931V6.94C39.7111 8.392 39.5131 9.228 39.5131 11.164V14.508H46.5751V11.186C46.5751 9.228 46.3771 8.392 45.6731 6.94V6.896H50.6231V6.94C49.9631 8.392 49.7431 9.228 49.7431 11.164V18.71C49.7431 20.668 49.9631 21.504 50.6231 22.956V23H45.6731V22.956C46.3771 21.504 46.5751 20.668 46.5751 18.71V14.97H39.5131V18.71C39.5131 20.668 39.7111 21.504 40.3931 22.956V23H35.4651ZM57.7398 23.33C54.5718 23.33 51.9538 20.712 51.9758 17.72C51.9978 14.706 54.5938 12.066 57.7398 12.066C60.8858 12.066 63.5038 14.706 63.5038 17.72C63.5038 20.712 60.9078 23.33 57.7398 23.33ZM57.7398 22.912C59.6978 22.912 60.5338 20.58 60.5338 17.72C60.5338 14.86 59.6758 12.506 57.7398 12.506C55.8038 12.506 54.9678 14.86 54.9678 17.72C54.9678 20.58 55.7818 22.912 57.7398 22.912ZM64.8972 23V22.956C65.2052 22.23 65.4032 21.46 65.4032 19.766V10.262C65.4032 8.744 65.0072 7.864 64.3692 7.138V7.094L68.2192 5.884V19.744C68.2192 21.438 68.4392 22.23 68.7472 22.956V23H64.8972ZM73.8711 8.546C73.8711 9.426 73.1451 10.13 72.2651 10.13C71.3851 10.13 70.6811 9.426 70.6811 8.546C70.6811 7.688 71.3851 6.962 72.2651 6.962C73.1451 6.962 73.8711 7.688 73.8711 8.546ZM70.5491 23V22.956C70.8571 21.812 71.0771 20.778 71.0771 18.908V16.422C71.0771 14.926 70.6811 14.046 70.0211 13.298V13.166L73.8711 11.956V18.908C73.8711 20.756 73.9811 21.812 74.3771 22.956V23H70.5491ZM81.5209 21.702C82.4889 21.702 83.2589 21.284 83.7869 20.668V14.86C83.4789 13.1 82.5989 12.462 81.6309 12.462C79.9369 12.462 78.8369 14.288 78.8369 17.368C78.8369 20.118 79.7609 21.702 81.5209 21.702ZM83.8749 21.108H83.8309C83.1709 22.252 81.9169 23.33 80.1129 23.33C77.5609 23.33 75.9329 21.174 75.9329 18.182C75.9329 14.926 77.9129 12.066 81.6969 12.066C82.5109 12.066 83.2149 12.198 83.7869 12.396V10.284C83.7869 8.744 83.3909 7.864 82.7529 7.138V7.094L86.6029 5.884V18.336C86.6029 21.108 86.9329 21.68 87.6589 22.406V22.45L83.8749 23.286V21.108ZM92.9565 21.812C93.5285 21.812 94.0345 21.614 94.3645 21.372V17.918C92.7145 18.314 91.4165 19.128 91.4165 20.404C91.4165 21.262 91.9665 21.812 92.9565 21.812ZM96.4985 23.286C95.2665 23.286 94.5845 22.626 94.4305 21.746C93.7705 22.582 92.6705 23.33 91.2845 23.33C89.9645 23.33 88.8865 22.692 88.8865 21.306C88.8865 19.018 91.9665 17.962 94.3645 17.522V15.586C94.3645 14.376 93.8585 13.694 92.2965 13.694C91.4605 13.694 90.3825 13.892 89.4145 14.508L89.3045 14.354C90.2945 13.1 91.9225 12.066 94.0565 12.066C96.3225 12.066 97.1805 13.276 97.1805 14.816V20.8C97.1805 21.328 97.4005 21.768 98.0825 21.768C98.3685 21.768 98.6985 21.68 99.0505 21.416L99.0945 21.482C98.7645 22.208 98.0605 23.286 96.4985 23.286ZM108.527 23H99.8808V22.846L105.821 12.77L103.643 12.858C102.499 12.88 101.377 14.288 100.299 15.41L100.167 15.366L100.981 12.396H109.055V12.572L103.115 22.648L105.623 22.582C106.965 22.516 108.021 21.306 109.231 19.7L109.363 19.744L108.527 23ZM115.453 12.462C114.023 12.462 113.275 14.112 113.165 16.136L117.213 16.048V15.542C117.213 13.408 116.597 12.462 115.453 12.462ZM120.007 19.964C119.413 21.9 117.851 23.33 115.453 23.33C112.351 23.33 110.327 20.954 110.327 17.896C110.327 14.398 112.857 12.066 115.563 12.066C118.379 12.066 120.095 14.464 120.007 16.532L113.165 16.51V16.576C113.165 19.876 114.727 21.174 116.905 21.174C118.313 21.174 119.281 20.602 119.875 19.898L120.007 19.964Z" fill="#C5BCB3"/>
</svg>
