<svg width="47" height="50" viewBox="0 0 47 50" fill="none" xmlns="http://www.w3.org/2000/svg">
<rect width="46.4531" height="50" rx="23.2266" fill="#0F0D12"/>
<mask id="mask0_1047_365" style="mask-type:luminance" maskUnits="userSpaceOnUse" x="10" y="10" width="27" height="30">
<path d="M36.4531 10H10V40H36.4531V10Z" fill="white"/>
</mask>
<g mask="url(#mask0_1047_365)">
<path d="M32.3709 13.0032H30.5696C29.9201 13.0032 29.3938 13.5296 29.3938 14.1789V20.7266C29.3938 21.376 29.9201 21.9024 30.5696 21.9024H32.3709C33.0203 21.9024 33.5467 21.376 33.5467 20.7266V14.1789C33.5467 13.5296 33.0203 13.0032 32.3709 13.0032Z" fill="#C5BCB3"/>
<path d="M35.3338 21.4511L24.3452 10.4615C24.0481 10.1658 23.6459 9.99976 23.2266 9.99976C22.8074 9.99976 22.4052 10.1658 22.108 10.4615L11.1196 21.4511C10.4491 22.1969 10.054 23.1497 10 24.1511V26.0869C16.0034 30.5534 23.2894 32.96 30.772 32.948C32.675 32.9483 34.5749 32.7937 36.4528 32.4855V24.1511C36.3982 23.1499 36.0035 22.1974 35.3338 21.4511Z" fill="#DEE1E6"/>
<path d="M30.7723 34.7282C23.2897 34.74 16.0036 32.3334 10.0002 27.8671V38.3236C10.0016 38.7429 10.1687 39.1444 10.4651 39.4407C10.7615 39.7372 11.163 39.9042 11.5822 39.9056H34.8713C35.2903 39.9042 35.6918 39.737 35.9883 39.4407C36.2846 39.1442 36.4517 38.7427 36.453 38.3236V34.2657C34.5751 34.5739 32.6753 34.7285 30.7723 34.7282Z" fill="#C5BCB3"/>
</g>
</svg>
